<?xml version="1.0" encoding="UTF-8" standalone="no"?>
<svg
   xmlns:dc="http://purl.org/dc/elements/1.1/"
   xmlns:cc="http://creativecommons.org/ns#"
   xmlns:rdf="http://www.w3.org/1999/02/22-rdf-syntax-ns#"
   xmlns:svg="http://www.w3.org/2000/svg"
   xmlns="http://www.w3.org/2000/svg"
   viewBox="0 0 398.61334 134.61333"
   height="134.61333"
   width="398.61334"
   xml:space="preserve"
   id="svg2"
   version="1.1"><metadata
     id="metadata8"><rdf:RDF><cc:Work
         rdf:about=""><dc:format>image/svg+xml</dc:format><dc:type
           rdf:resource="http://purl.org/dc/dcmitype/StillImage" /></cc:Work></rdf:RDF></metadata><defs
     id="defs6" /><g
     transform="matrix(1.3333333,0,0,-1.3333333,0,134.61333)"
     id="g10"><g
       transform="scale(0.1)"
       id="g12"><path
         id="path18"
         style="fill:#27963c;fill-opacity:1;fill-rule:nonzero;stroke:none"
         d="m 1174.91,235.391 h -79.56 v 126.914 l -53.52,80.031 V 235.391 h -80.029 v 334.343 h 80.029 v -31.269 l 53.52,-79.559 v 110.828 h 79.56 V 235.391" /><path
         id="path20"
         style="fill:#27963c;fill-opacity:1;fill-rule:nonzero;stroke:none"
         d="m 1482.76,308.309 c 0,-48.309 -32.21,-72.918 -76.24,-72.918 h -60.62 c -43.57,0 -76.25,24.609 -76.25,72.918 v 261.425 h 80.04 V 285.105 h 53.52 v 284.629 h 79.55 V 308.309" /><path
         id="path22"
         style="fill:#27963c;fill-opacity:1;fill-rule:nonzero;stroke:none"
         d="m 1721.47,235.391 h -67.72 c -43.57,0 -76.25,24.609 -76.25,72.918 v 261.425 h 80.03 V 285.105 h 63.94 v -49.714" /><path
         id="path24"
         style="fill:#27963c;fill-opacity:1;fill-rule:nonzero;stroke:none"
         d="m 1936.49,235.391 h -67.72 c -43.57,0 -76.25,24.609 -76.25,72.918 v 261.425 h 80.04 V 285.105 h 63.93 v -49.714" /><path
         id="path26"
         style="fill:#27963c;fill-opacity:1;fill-rule:nonzero;stroke:none"
         d="m 2087.58,235.391 h -80.04 v 334.343 h 80.04 V 235.391" /><path
         id="path28"
         style="fill:#27963c;fill-opacity:1;fill-rule:nonzero;stroke:none"
         d="m 2326.27,377.922 h -63.92 V 235.391 h -80.04 v 261.414 c 0,48.3 32.68,72.929 76.25,72.929 h 67.71 v -49.726 h -63.92 v -92.832 h 63.92 v -49.254" /><path
         id="path30"
         style="fill:#27963c;fill-opacity:1;fill-rule:nonzero;stroke:none"
         d="m 2456.55,351.406 c -33.17,0 -58.73,28.43 -58.73,67.246 v 151.082 h 79.56 V 401.121 h 53.04 v 168.613 h 79.57 V 418.652 c 0,-38.816 -25.59,-67.246 -58.74,-67.246 h -7.57 V 235.391 h -79.56 v 116.015 h -7.57" /><path
         id="path32"
         style="fill:#27963c;fill-opacity:1;fill-rule:nonzero;stroke:none"
         d="m 491.449,195.477 h -33.965 c -33.132,0 -56.738,19.054 -56.738,55.91 v 132.136 h -21.133 v 38.086 h 21.133 V 553.75 c 0,36.863 23.606,55.898 56.738,55.898 h 33.965 V 571.973 H 455.004 V 440.676 c 0,-19.465 -11.602,-31.887 -29.824,-38.11 18.222,-5.8 29.824,-18.632 29.824,-37.683 V 233.164 h 36.445 v -37.687" /><path
         id="path34"
         style="fill:#27963c;fill-opacity:1;fill-rule:nonzero;stroke:none"
         d="M 820.98,383.523 H 799.867 V 251.387 c 0,-36.856 -23.613,-55.91 -56.746,-55.91 h -33.957 v 37.687 h 36.445 v 131.719 c 0,19.051 11.172,31.883 29.825,37.683 -18.653,6.223 -29.825,18.645 -29.825,38.11 v 131.297 h -36.445 v 37.675 h 33.957 c 33.133,0 56.746,-19.035 56.746,-55.898 V 421.609 h 21.113 v -38.086" /><path
         id="path36"
         style="fill:#91d122;fill-opacity:1;fill-rule:nonzero;stroke:none"
         d="m 750.863,635.723 h -43.515 v 23.437 c 0,64.871 -48.457,129.426 -108.028,129.426 -59.57,0 -108.027,-64.555 -108.027,-129.426 v -23.437 h -43.516 v 23.437 c 0,85.43 67.989,154.93 151.543,154.93 83.567,0 151.543,-69.5 151.543,-154.93 v -23.437" /><path
         id="path38"
         style="fill:#91d122;fill-opacity:1;fill-rule:nonzero;stroke:none"
         d="m 616.598,411.418 c 22.078,7.859 37.879,28.922 37.879,53.711 0,31.473 -25.508,57 -56.993,57 -31.464,0 -56.992,-25.527 -56.992,-57 0,-24.789 15.821,-45.852 37.903,-53.711 L 570.492,390.859 543.5,320.613 h 53.984 54.004 l -26.992,70.246 -7.898,20.559" /><path
         id="path40"
         style="fill:#91d122;fill-opacity:1;fill-rule:nonzero;stroke:none"
         d="m 1016.65,207.578 c 0.74,1.016 1.55,1.777 2.43,2.285 0.88,0.508 1.82,0.762 2.84,0.762 1.76,0 3.19,-0.605 4.31,-1.816 1.11,-1.211 1.67,-3.262 1.67,-6.153 v -10.195 c 0,-2.891 -0.56,-4.953 -1.67,-6.184 -1.12,-1.226 -2.55,-1.843 -4.31,-1.843 -1.6,0 -2.89,0.449 -3.87,1.347 -0.97,0.899 -1.7,2.578 -2.17,5.039 -0.27,1.641 -0.82,2.91 -1.64,3.809 -1.6,1.758 -3.83,3.164 -6.71,4.219 -2.87,1.054 -5.75,1.582 -8.639,1.582 -3.594,0 -6.895,-0.782 -9.903,-2.344 -3.008,-1.563 -5.664,-4.102 -7.968,-7.617 -2.305,-3.516 -3.457,-7.696 -3.457,-12.539 v -7.793 c 0,-5.782 2.101,-10.606 6.3,-14.473 4.2,-3.867 10.028,-5.801 17.487,-5.801 4.46,0 8.23,0.606 11.31,1.817 1.8,0.703 3.71,2.09 5.74,4.16 1.25,1.25 2.23,2.058 2.93,2.43 0.71,0.371 1.51,0.558 2.41,0.558 1.6,0 3,-0.605 4.21,-1.816 1.22,-1.211 1.82,-2.637 1.82,-4.278 0,-1.64 -0.82,-3.398 -2.46,-5.273 -2.38,-2.734 -5.45,-4.883 -9.2,-6.445 -5.04,-2.11 -10.61,-3.164 -16.7,-3.164 -7.109,0 -13.515,1.464 -19.219,4.394 -4.609,2.344 -8.535,6.047 -11.777,11.102 -3.242,5.058 -4.863,10.578 -4.863,16.554 v 8.145 c 0,6.25 1.457,12.082 4.367,17.488 2.91,5.41 6.941,9.582 12.098,12.512 5.156,2.93 10.625,4.394 16.406,4.394 3.478,0 6.728,-0.398 9.758,-1.203 3.03,-0.8 5.85,-2.019 8.47,-3.66" /><path
         id="path42"
         style="fill:#91d122;fill-opacity:1;fill-rule:nonzero;stroke:none"
         d="m 1089.01,165.156 c 0,3.867 -1.39,7.422 -4.16,10.664 -3.79,4.375 -8.77,6.563 -14.94,6.563 -5.43,0 -9.96,-1.738 -13.6,-5.215 -3.63,-3.477 -5.45,-7.5 -5.45,-12.07 0,-3.75 1.84,-7.258 5.51,-10.52 3.67,-3.262 8.19,-4.89 13.54,-4.89 5.39,0 9.92,1.628 13.59,4.89 3.67,3.262 5.51,6.789 5.51,10.578 z m 12.01,0.059 c 0,-4.61 -1.28,-9.074 -3.84,-13.391 -2.56,-4.316 -6.36,-7.754 -11.42,-10.312 -5.06,-2.559 -10.34,-3.836 -15.85,-3.836 -5.47,0 -10.71,1.258 -15.71,3.777 -5,2.52 -8.8,5.949 -11.42,10.285 -2.62,4.336 -3.93,8.867 -3.93,13.594 0,4.805 1.33,9.52 3.99,14.148 2.65,4.629 6.47,8.274 11.45,10.93 4.98,2.656 10.19,3.985 15.62,3.985 5.47,0 10.73,-1.36 15.79,-4.075 5.06,-2.715 8.88,-6.367 11.45,-10.957 2.58,-4.59 3.87,-9.304 3.87,-14.148" /><path
         id="path44"
         style="fill:#91d122;fill-opacity:1;fill-rule:nonzero;stroke:none"
         d="m 1123.29,192.813 v -3.399 c 1.95,1.914 3.72,3.231 5.3,3.953 1.58,0.723 3.41,1.086 5.48,1.086 1.76,0 3.49,-0.43 5.21,-1.289 1.72,-0.859 3.4,-2.148 5.04,-3.867 2.07,1.719 4.17,3 6.3,3.836 2.13,0.84 4.31,1.262 6.53,1.262 4.46,0 8.07,-1.192 10.84,-3.575 3.68,-3.125 5.51,-7.226 5.51,-12.304 v -26.895 c 2.5,0 4.36,-0.566 5.57,-1.699 1.21,-1.133 1.81,-2.578 1.81,-4.336 0,-1.758 -0.6,-3.195 -1.81,-4.309 -1.21,-1.109 -3.26,-1.668 -6.15,-1.668 h -11.43 v 37.911 c 0,1.835 -0.33,3.105 -1,3.808 -0.66,0.703 -1.68,1.055 -3.04,1.055 -1.33,0 -2.56,-0.352 -3.7,-1.055 -1.44,-0.976 -3.2,-2.812 -5.27,-5.508 v -24.199 c 2.5,0 4.36,-0.566 5.57,-1.699 1.21,-1.133 1.81,-2.578 1.81,-4.336 0,-1.758 -0.6,-3.195 -1.81,-4.309 -1.21,-1.109 -3.26,-1.668 -6.15,-1.668 h -11.43 v 37.911 c 0,1.796 -0.34,3.054 -1.03,3.781 -0.68,0.719 -1.7,1.082 -3.07,1.082 -1.41,0 -2.79,-0.442 -4.16,-1.32 -1.37,-0.879 -3.01,-2.625 -4.92,-5.243 v -24.199 c 2.5,0 4.36,-0.566 5.59,-1.699 1.23,-1.133 1.85,-2.578 1.85,-4.336 0,-1.758 -0.62,-3.195 -1.85,-4.309 -1.23,-1.109 -3.29,-1.668 -6.18,-1.668 h -10.84 c -2.89,0 -4.95,0.559 -6.18,1.668 -1.23,1.114 -1.85,2.571 -1.85,4.368 0,1.757 0.61,3.195 1.82,4.304 1.21,1.114 3.09,1.672 5.62,1.672 v 29.18 c -2.53,0 -4.41,0.566 -5.62,1.699 -1.21,1.133 -1.82,2.578 -1.82,4.336 0,1.758 0.62,3.191 1.85,4.305 1.23,1.117 3.29,1.672 6.18,1.672 h 11.43" /><path
         id="path46"
         style="fill:#91d122;fill-opacity:1;fill-rule:nonzero;stroke:none"
         d="m 1234.56,166.855 c 0,1.68 -0.67,3.821 -2,6.415 -1.32,2.597 -3.37,4.765 -6.12,6.503 -2.75,1.739 -5.99,2.61 -9.7,2.61 -5.97,0 -10.72,-2.246 -14.24,-6.738 -2.38,-3.086 -3.57,-6.055 -3.57,-8.907 0,-3.203 1.71,-6.316 5.13,-9.347 3.42,-3.028 7.64,-4.539 12.68,-4.539 5.08,0 9.32,1.503 12.72,4.511 3.4,3.008 5.1,6.172 5.1,9.492 z m -35.63,-20.625 v -19.687 h 7.21 c 2.89,0 4.95,-0.559 6.18,-1.672 1.23,-1.113 1.85,-2.566 1.85,-4.363 0,-1.758 -0.62,-3.195 -1.85,-4.309 -1.23,-1.109 -3.29,-1.668 -6.18,-1.668 h -21.27 c -2.89,0 -4.95,0.559 -6.18,1.668 -1.23,1.114 -1.85,2.551 -1.85,4.309 0,1.797 0.63,3.25 1.88,4.363 1.25,1.113 3.3,1.672 6.15,1.672 h 2.05 v 54.258 h -2.05 c -2.89,0 -4.95,0.554 -6.18,1.668 -1.23,1.117 -1.85,2.57 -1.85,4.367 0,1.758 0.62,3.191 1.85,4.305 1.23,1.117 3.29,1.672 6.18,1.672 h 14.06 v -4.102 c 2.81,1.914 5.72,3.34 8.73,4.277 3.01,0.938 6.09,1.407 9.26,1.407 8.2,0 15.19,-2.786 20.98,-8.348 5.78,-5.57 8.67,-11.945 8.67,-19.133 0,-7.93 -3.42,-14.473 -10.26,-19.629 -5.7,-4.297 -12.13,-6.445 -19.27,-6.445 -3.09,0 -6.14,0.449 -9.14,1.348 -3.01,0.898 -6,2.246 -8.97,4.042" /><path
         id="path48"
         style="fill:#91d122;fill-opacity:1;fill-rule:nonzero;stroke:none"
         d="m 1311.37,192.813 v -41.192 c 2.54,0 4.42,-0.566 5.63,-1.699 1.21,-1.133 1.81,-2.578 1.81,-4.336 0,-1.758 -0.61,-3.195 -1.84,-4.309 -1.23,-1.109 -3.29,-1.668 -6.18,-1.668 h -11.43 v 2.754 c -3.44,-1.562 -6.72,-2.734 -9.84,-3.515 -3.13,-0.782 -6.1,-1.172 -8.91,-1.172 -3.94,0 -7.36,0.832 -10.25,2.492 -2.89,1.656 -5.18,3.953 -6.86,6.883 -1.21,2.109 -1.82,4.746 -1.82,7.91 v 25.84 h -2.05 c -2.89,0 -4.95,0.554 -6.18,1.668 -1.23,1.117 -1.84,2.57 -1.84,4.367 0,1.758 0.61,3.191 1.84,4.305 1.23,1.117 3.29,1.672 6.18,1.672 h 14.07 V 157.07 c 0,-2.539 0.61,-4.402 1.84,-5.597 1.23,-1.192 3.12,-1.785 5.66,-1.785 2.42,0 5.03,0.48 7.82,1.433 2.79,0.957 6.24,2.688 10.34,5.188 v 24.492 h -4.34 c -2.89,0 -4.95,0.554 -6.18,1.668 -1.23,1.117 -1.84,2.57 -1.84,4.367 0,1.758 0.61,3.191 1.84,4.305 1.23,1.117 3.29,1.672 6.18,1.672 h 16.35" /><path
         id="path50"
         style="fill:#91d122;fill-opacity:1;fill-rule:nonzero;stroke:none"
         d="m 1354.91,180.801 v -24.082 c 0,-2.578 0.52,-4.278 1.58,-5.098 1.64,-1.289 4.57,-1.933 8.79,-1.933 6.13,0 11.8,1.308 16.99,3.925 1.99,1.016 3.56,1.524 4.69,1.524 1.56,0 2.92,-0.586 4.07,-1.758 1.15,-1.172 1.73,-2.598 1.73,-4.277 0,-1.563 -0.63,-2.911 -1.88,-4.043 -1.91,-1.836 -5.69,-3.528 -11.33,-5.071 -5.65,-1.543 -10.4,-2.312 -14.27,-2.312 -7.46,0 -13.06,1.609 -16.79,4.832 -3.73,3.222 -5.59,7.18 -5.59,11.867 v 26.426 h -4.34 c -2.89,0 -4.95,0.554 -6.18,1.668 -1.23,1.117 -1.85,2.57 -1.85,4.367 0,1.758 0.62,3.191 1.85,4.305 1.23,1.117 3.29,1.672 6.18,1.672 h 4.34 v 10.839 c 0,2.891 0.55,4.95 1.67,6.184 1.11,1.227 2.56,1.844 4.36,1.844 1.76,0 3.19,-0.617 4.31,-1.844 1.11,-1.234 1.67,-3.293 1.67,-6.184 v -10.839 h 22.2 c 2.89,0 4.96,-0.555 6.19,-1.672 1.23,-1.114 1.84,-2.567 1.84,-4.364 0,-1.757 -0.61,-3.191 -1.84,-4.308 -1.23,-1.114 -3.3,-1.668 -6.19,-1.668 h -22.2" /><path
         id="path52"
         style="fill:#91d122;fill-opacity:1;fill-rule:nonzero;stroke:none"
         d="m 1446.72,172.129 c -1.83,3.437 -4.23,6.004 -7.2,7.707 -2.97,1.695 -6.51,2.547 -10.61,2.547 -4.06,0 -7.58,-0.852 -10.55,-2.547 -2.96,-1.703 -5.39,-4.27 -7.26,-7.707 z m 13.3,-12.012 h -49.27 c 1.25,-3.125 3.46,-5.644 6.65,-7.558 3.18,-1.914 7.49,-2.871 12.92,-2.871 4.45,0 10.37,0.957 17.75,2.871 3.05,0.781 5.16,1.171 6.33,1.171 1.6,0 2.95,-0.566 4.04,-1.699 1.1,-1.133 1.64,-2.558 1.64,-4.277 0,-1.563 -0.58,-2.891 -1.75,-3.984 -1.57,-1.446 -5.38,-2.825 -11.43,-4.133 -6.06,-1.309 -11.88,-1.961 -17.46,-1.961 -9.61,0 -17.3,2.715 -23.06,8.144 -5.76,5.43 -8.64,12.11 -8.64,20.039 0,8.438 3.11,15.301 9.34,20.594 6.24,5.293 13.41,7.942 21.54,7.942 4.88,0 9.36,-0.86 13.45,-2.579 4.08,-1.718 7.11,-3.574 9.11,-5.566 2.81,-2.891 5.13,-6.465 6.97,-10.723 1.25,-2.968 1.87,-6.406 1.87,-10.312 v -5.098" /><path
         id="path54"
         style="fill:#91d122;fill-opacity:1;fill-rule:nonzero;stroke:none"
         d="m 1499.4,192.813 v -7.5 c 5.04,3.632 9.01,6.054 11.92,7.265 2.91,1.211 5.64,1.817 8.18,1.817 3.9,0 7.69,-1.446 11.36,-4.336 2.5,-1.954 3.75,-3.946 3.75,-5.977 0,-1.719 -0.59,-3.176 -1.78,-4.367 -1.19,-1.192 -2.63,-1.785 -4.31,-1.785 -1.48,0 -3.05,0.742 -4.69,2.226 -1.64,1.485 -3.1,2.227 -4.39,2.227 -1.68,0 -4.19,-1.055 -7.53,-3.164 -3.34,-2.11 -7.51,-5.274 -12.51,-9.492 v -18.106 h 17.11 c 2.89,0 4.95,-0.558 6.18,-1.672 1.23,-1.109 1.85,-2.566 1.85,-4.363 0,-1.758 -0.62,-3.195 -1.85,-4.309 -1.23,-1.109 -3.29,-1.668 -6.18,-1.668 h -36.27 c -2.89,0 -4.95,0.559 -6.18,1.668 -1.23,1.114 -1.85,2.571 -1.85,4.368 0,1.757 0.62,3.195 1.85,4.304 1.23,1.114 3.29,1.672 6.18,1.672 h 7.15 v 29.18 h -4.34 c -2.89,0 -4.95,0.554 -6.18,1.668 -1.23,1.117 -1.85,2.57 -1.85,4.367 0,1.758 0.62,3.191 1.85,4.305 1.23,1.117 3.29,1.672 6.18,1.672 h 16.35" /><path
         id="path56"
         style="fill:#91d122;fill-opacity:1;fill-rule:nonzero;stroke:none"
         d="m 1628.36,142.656 c -1.05,-1.25 -1.9,-2.051 -2.54,-2.402 -0.65,-0.352 -1.44,-0.527 -2.38,-0.527 -1.83,0 -3.31,0.613 -4.42,1.843 -1.11,1.231 -1.67,3.274 -1.67,6.125 v 8.086 c 0,2.891 0.56,4.949 1.67,6.184 1.11,1.226 2.59,1.844 4.42,1.844 1.41,0 2.59,-0.371 3.55,-1.114 0.95,-0.742 1.69,-1.98 2.19,-3.722 0.51,-1.739 1.04,-2.918 1.59,-3.543 1.13,-1.211 3.14,-2.442 6.03,-3.692 2.89,-1.25 6.06,-1.875 9.49,-1.875 5.36,0 9.75,1.25 13.19,3.75 2.19,1.524 3.28,3.399 3.28,5.625 0,1.485 -0.53,2.879 -1.58,4.188 -1.06,1.308 -2.78,2.394 -5.16,3.254 -1.56,0.586 -5.06,1.386 -10.49,2.402 -6.56,1.211 -11.52,2.676 -14.88,4.395 -3.36,1.718 -6.02,4.14 -7.97,7.265 -1.95,3.125 -2.93,6.504 -2.93,10.137 0,5.742 2.4,10.769 7.21,15.086 4.8,4.316 11.05,6.476 18.75,6.476 3.08,0 5.95,-0.343 8.58,-1.023 2.64,-0.688 5.03,-1.73 7.18,-3.137 1.56,1.524 3.12,2.285 4.69,2.285 1.76,0 3.19,-0.617 4.3,-1.847 1.12,-1.231 1.67,-3.27 1.67,-6.121 v -9.024 c 0,-2.89 -0.55,-4.953 -1.67,-6.183 -1.11,-1.231 -2.54,-1.844 -4.3,-1.844 -1.49,0 -2.78,0.449 -3.87,1.348 -0.86,0.664 -1.5,1.992 -1.93,3.984 -0.43,1.992 -0.98,3.418 -1.64,4.277 -1.14,1.485 -2.84,2.735 -5.1,3.75 -2.27,1.016 -4.88,1.524 -7.85,1.524 -4.34,0 -7.77,-1.004 -10.29,-3.02 -2.52,-2.012 -3.78,-4.109 -3.78,-6.297 0,-1.484 0.52,-2.922 1.56,-4.308 1.03,-1.383 2.55,-2.469 4.54,-3.25 1.33,-0.547 5.07,-1.426 11.22,-2.637 6.15,-1.211 10.88,-2.539 14.18,-3.984 3.3,-1.446 6.04,-3.711 8.23,-6.797 2.19,-3.086 3.28,-6.758 3.28,-11.016 0,-5.937 -2.09,-10.683 -6.27,-14.238 -5.54,-4.688 -12.61,-7.031 -21.21,-7.031 -3.32,0 -6.55,0.402 -9.7,1.199 -3.14,0.801 -6.2,2.004 -9.17,3.605" /><path
         id="path58"
         style="fill:#91d122;fill-opacity:1;fill-rule:nonzero;stroke:none"
         d="m 1734.77,172.129 c -1.84,3.437 -4.24,6.004 -7.21,7.707 -2.97,1.695 -6.5,2.547 -10.6,2.547 -4.06,0 -7.58,-0.852 -10.55,-2.547 -2.97,-1.703 -5.39,-4.27 -7.26,-7.707 z m 13.3,-12.012 h -49.28 c 1.25,-3.125 3.47,-5.644 6.65,-7.558 3.19,-1.914 7.49,-2.871 12.92,-2.871 4.46,0 10.38,0.957 17.76,2.871 3.05,0.781 5.15,1.171 6.33,1.171 1.6,0 2.95,-0.566 4.04,-1.699 1.09,-1.133 1.64,-2.558 1.64,-4.277 0,-1.563 -0.59,-2.891 -1.76,-3.984 -1.56,-1.446 -5.37,-2.825 -11.42,-4.133 -6.06,-1.309 -11.88,-1.961 -17.46,-1.961 -9.61,0 -17.3,2.715 -23.06,8.144 -5.76,5.43 -8.64,12.11 -8.64,20.039 0,8.438 3.11,15.301 9.34,20.594 6.23,5.293 13.41,7.942 21.54,7.942 4.88,0 9.36,-0.86 13.44,-2.579 4.08,-1.718 7.12,-3.574 9.11,-5.566 2.82,-2.891 5.14,-6.465 6.98,-10.723 1.25,-2.968 1.87,-6.406 1.87,-10.312 v -5.098" /><path
         id="path60"
         style="fill:#91d122;fill-opacity:1;fill-rule:nonzero;stroke:none"
         d="m 1808.66,190.645 c 1.44,1.367 2.93,2.05 4.45,2.05 1.72,0 3.14,-0.617 4.25,-1.847 1.11,-1.231 1.67,-3.27 1.67,-6.121 v -7.735 c 0,-2.89 -0.56,-4.941 -1.67,-6.152 -1.11,-1.211 -2.57,-1.817 -4.37,-1.817 -1.64,0 -3.02,0.469 -4.16,1.407 -0.82,0.703 -1.46,2.136 -1.93,4.304 -0.47,2.168 -1.6,3.782 -3.4,4.836 -3.16,1.875 -7.21,2.813 -12.13,2.813 -5.66,0 -10.2,-1.66 -13.62,-4.981 -3.42,-3.32 -5.13,-7.519 -5.13,-12.597 0,-4.688 1.64,-8.387 4.92,-11.106 3.29,-2.715 8.73,-4.07 16.35,-4.07 5,0 9.08,0.508 12.25,1.523 1.87,0.625 3.65,1.688 5.33,3.192 1.68,1.504 3.2,2.258 4.57,2.258 1.64,0 3.06,-0.606 4.25,-1.817 1.19,-1.211 1.79,-2.637 1.79,-4.277 0,-2.656 -1.82,-5.176 -5.45,-7.559 -5.39,-3.554 -13.29,-5.332 -23.68,-5.332 -9.33,0 -16.6,1.934 -21.79,5.801 -7.03,5.195 -10.55,12.305 -10.55,21.328 0,8.555 2.85,15.637 8.56,21.238 5.7,5.606 13.14,8.411 22.32,8.411 3.32,0 6.41,-0.313 9.26,-0.938 2.85,-0.625 5.49,-1.562 7.91,-2.812" /><path
         id="path62"
         style="fill:#91d122;fill-opacity:1;fill-rule:nonzero;stroke:none"
         d="m 1887.47,192.813 v -41.192 c 2.53,0 4.41,-0.566 5.62,-1.699 1.21,-1.133 1.82,-2.578 1.82,-4.336 0,-1.758 -0.62,-3.195 -1.85,-4.309 -1.23,-1.109 -3.29,-1.668 -6.18,-1.668 h -11.43 v 2.754 c -3.43,-1.562 -6.71,-2.734 -9.84,-3.515 -3.12,-0.782 -6.09,-1.172 -8.91,-1.172 -3.94,0 -7.36,0.832 -10.25,2.492 -2.89,1.656 -5.18,3.953 -6.86,6.883 -1.21,2.109 -1.81,4.746 -1.81,7.91 v 25.84 h -2.05 c -2.89,0 -4.95,0.554 -6.18,1.668 -1.23,1.117 -1.85,2.57 -1.85,4.367 0,1.758 0.62,3.191 1.85,4.305 1.23,1.117 3.29,1.672 6.18,1.672 h 14.06 V 157.07 c 0,-2.539 0.62,-4.402 1.85,-5.597 1.23,-1.192 3.11,-1.785 5.65,-1.785 2.42,0 5.03,0.48 7.82,1.433 2.8,0.957 6.24,2.688 10.34,5.188 v 24.492 h -4.33 c -2.89,0 -4.95,0.554 -6.18,1.668 -1.23,1.117 -1.85,2.57 -1.85,4.367 0,1.758 0.62,3.191 1.85,4.305 1.23,1.117 3.29,1.672 6.18,1.672 h 16.35" /><path
         id="path64"
         style="fill:#91d122;fill-opacity:1;fill-rule:nonzero;stroke:none"
         d="m 1931.47,192.813 v -7.5 c 5.04,3.632 9.01,6.054 11.92,7.265 2.91,1.211 5.64,1.817 8.18,1.817 3.9,0 7.69,-1.446 11.36,-4.336 2.5,-1.954 3.75,-3.946 3.75,-5.977 0,-1.719 -0.59,-3.176 -1.78,-4.367 -1.19,-1.192 -2.63,-1.785 -4.31,-1.785 -1.48,0 -3.05,0.742 -4.69,2.226 -1.64,1.485 -3.1,2.227 -4.39,2.227 -1.68,0 -4.19,-1.055 -7.53,-3.164 -3.34,-2.11 -7.51,-5.274 -12.51,-9.492 v -18.106 h 17.11 c 2.89,0 4.95,-0.558 6.18,-1.672 1.23,-1.109 1.85,-2.566 1.85,-4.363 0,-1.758 -0.62,-3.195 -1.85,-4.309 -1.23,-1.109 -3.29,-1.668 -6.18,-1.668 h -36.27 c -2.89,0 -4.95,0.559 -6.18,1.668 -1.23,1.114 -1.85,2.571 -1.85,4.368 0,1.757 0.62,3.195 1.85,4.304 1.23,1.114 3.29,1.672 6.18,1.672 h 7.15 v 29.18 h -4.34 c -2.89,0 -4.95,0.554 -6.18,1.668 -1.23,1.117 -1.85,2.57 -1.85,4.367 0,1.758 0.62,3.191 1.85,4.305 1.23,1.117 3.29,1.672 6.18,1.672 h 16.35" /><path
         id="path66"
         style="fill:#91d122;fill-opacity:1;fill-rule:nonzero;stroke:none"
         d="m 2010.28,215.605 v -12.714 h -14.3 v 12.714 z m 1.64,-22.792 v -41.192 h 14.41 c 2.89,0 4.95,-0.558 6.18,-1.672 1.24,-1.109 1.85,-2.566 1.85,-4.363 0,-1.758 -0.61,-3.195 -1.85,-4.309 -1.23,-1.109 -3.29,-1.668 -6.18,-1.668 h -40.84 c -2.89,0 -4.95,0.559 -6.18,1.668 -1.23,1.114 -1.84,2.571 -1.84,4.368 0,1.757 0.61,3.195 1.84,4.304 1.23,1.114 3.29,1.672 6.18,1.672 h 14.42 v 29.18 h -9.67 c -2.85,0 -4.9,0.554 -6.15,1.668 -1.25,1.117 -1.88,2.57 -1.88,4.367 0,1.758 0.62,3.191 1.85,4.305 1.23,1.117 3.29,1.672 6.18,1.672 h 21.68" /><path
         id="path68"
         style="fill:#91d122;fill-opacity:1;fill-rule:nonzero;stroke:none"
         d="m 2075.02,180.801 v -24.082 c 0,-2.578 0.53,-4.278 1.59,-5.098 1.64,-1.289 4.57,-1.933 8.79,-1.933 6.13,0 11.79,1.308 16.99,3.925 1.99,1.016 3.55,1.524 4.69,1.524 1.56,0 2.92,-0.586 4.07,-1.758 1.15,-1.172 1.73,-2.598 1.73,-4.277 0,-1.563 -0.63,-2.911 -1.88,-4.043 -1.91,-1.836 -5.69,-3.528 -11.34,-5.071 -5.64,-1.543 -10.4,-2.312 -14.26,-2.312 -7.47,0 -13.06,1.609 -16.79,4.832 -3.73,3.222 -5.6,7.18 -5.6,11.867 v 26.426 h -4.33 c -2.89,0 -4.95,0.554 -6.18,1.668 -1.24,1.117 -1.85,2.57 -1.85,4.367 0,1.758 0.61,3.191 1.85,4.305 1.23,1.117 3.29,1.672 6.18,1.672 h 4.33 v 10.839 c 0,2.891 0.56,4.95 1.67,6.184 1.12,1.227 2.57,1.844 4.37,1.844 1.76,0 3.19,-0.617 4.3,-1.844 1.12,-1.234 1.67,-3.293 1.67,-6.184 v -10.839 h 22.21 c 2.89,0 4.95,-0.555 6.18,-1.672 1.23,-1.114 1.85,-2.567 1.85,-4.364 0,-1.757 -0.62,-3.191 -1.85,-4.308 -1.23,-1.114 -3.29,-1.668 -6.18,-1.668 h -22.21" /><path
         id="path70"
         style="fill:#91d122;fill-opacity:1;fill-rule:nonzero;stroke:none"
         d="m 2143.29,140.02 -20.8,40.781 c -1.96,0.234 -3.44,0.898 -4.46,1.992 -1.01,1.094 -1.52,2.422 -1.52,3.984 0,1.797 0.61,3.25 1.84,4.364 1.23,1.117 3.3,1.672 6.19,1.672 h 10.95 c 2.89,0 4.95,-0.555 6.18,-1.672 1.24,-1.114 1.85,-2.567 1.85,-4.364 0,-1.757 -0.61,-3.191 -1.85,-4.308 -1.23,-1.114 -3.17,-1.668 -5.83,-1.668 l 14.18,-27.598 14.07,27.598 c -2.58,0 -4.49,0.554 -5.72,1.668 -1.23,1.117 -1.84,2.57 -1.84,4.367 0,1.758 0.61,3.191 1.84,4.305 1.23,1.117 3.3,1.672 6.19,1.672 h 11.3 c 2.86,0 4.9,-0.555 6.13,-1.672 1.23,-1.114 1.84,-2.567 1.84,-4.364 0,-1.601 -0.52,-2.961 -1.58,-4.074 -1.05,-1.113 -2.62,-1.746 -4.69,-1.902 l -27.54,-54.258 c 3.01,0 4.98,-0.293 5.92,-0.879 1.88,-1.211 2.81,-2.93 2.81,-5.156 0,-1.758 -0.61,-3.195 -1.84,-4.309 -1.23,-1.109 -3.29,-1.668 -6.18,-1.668 h -26.19 c -2.89,0 -4.96,0.559 -6.19,1.668 -1.23,1.114 -1.84,2.551 -1.84,4.309 0,1.797 0.61,3.25 1.84,4.363 1.23,1.113 3.3,1.672 6.19,1.672 h 11.95 l 6.8,13.477" /><path
         id="path72"
         style="fill:#91d122;fill-opacity:1;fill-rule:nonzero;stroke:none"
         d="m 2324.28,161.582 v -16.113 c -5.43,-2.93 -10.05,-4.934 -13.86,-6.004 -3.8,-1.078 -7.92,-1.613 -12.33,-1.613 -6.13,0 -11.82,0.918 -17.05,2.753 -4.1,1.407 -7.33,3.184 -9.7,5.333 -2.36,2.148 -4.54,5.32 -6.53,9.523 -1.99,4.195 -2.99,8.894 -2.99,14.09 v 8.672 c 0,8.007 2.44,15.156 7.33,21.445 6.56,8.516 15.48,12.773 26.77,12.773 3.28,0 6.4,-0.332 9.35,-0.996 2.95,-0.664 5.75,-1.66 8.41,-2.988 1.6,1.445 3.16,2.168 4.68,2.168 1.76,0 3.19,-0.605 4.28,-1.816 1.1,-1.211 1.64,-3.262 1.64,-6.153 v -7.793 c 0,-2.89 -0.55,-4.953 -1.67,-6.183 -1.11,-1.231 -2.55,-1.844 -4.3,-1.844 -1.41,0 -2.62,0.43 -3.64,1.289 -0.78,0.586 -1.43,1.883 -1.96,3.895 -0.53,2.011 -1.12,3.371 -1.79,4.074 -1.05,1.133 -2.92,2.136 -5.59,3.015 -2.68,0.879 -5.68,1.321 -9,1.321 -4.76,0 -8.9,-0.977 -12.42,-2.93 -2.5,-1.445 -4.8,-3.965 -6.91,-7.559 -2.11,-3.593 -3.17,-7.5 -3.17,-11.718 v -8.672 c 0,-6.446 1.87,-11.336 5.6,-14.68 3.73,-3.34 9.66,-5.008 17.78,-5.008 5.51,0 10.53,1.035 15.06,3.106 v 8.613 h -12.25 c -2.89,0 -4.95,0.555 -6.18,1.672 -1.23,1.109 -1.84,2.566 -1.84,4.363 0,1.797 0.61,3.25 1.84,4.363 1.23,1.114 3.29,1.672 6.18,1.672 l 21.33,-0.058 c 2.89,0 4.95,-0.547 6.18,-1.641 1.23,-1.094 1.85,-2.539 1.85,-4.336 0,-1.406 -0.42,-2.637 -1.26,-3.691 -0.84,-1.055 -2.12,-1.836 -3.84,-2.344" /><path
         id="path74"
         style="fill:#91d122;fill-opacity:1;fill-rule:nonzero;stroke:none"
         d="m 2363.54,192.813 v -7.5 c 5.04,3.632 9.01,6.054 11.92,7.265 2.91,1.211 5.64,1.817 8.18,1.817 3.9,0 7.69,-1.446 11.36,-4.336 2.5,-1.954 3.75,-3.946 3.75,-5.977 0,-1.719 -0.59,-3.176 -1.78,-4.367 -1.19,-1.192 -2.63,-1.785 -4.31,-1.785 -1.48,0 -3.05,0.742 -4.69,2.226 -1.64,1.485 -3.1,2.227 -4.39,2.227 -1.68,0 -4.19,-1.055 -7.53,-3.164 -3.34,-2.11 -7.51,-5.274 -12.51,-9.492 v -18.106 h 17.11 c 2.89,0 4.95,-0.558 6.18,-1.672 1.23,-1.109 1.85,-2.566 1.85,-4.363 0,-1.758 -0.62,-3.195 -1.85,-4.309 -1.23,-1.109 -3.29,-1.668 -6.18,-1.668 h -36.27 c -2.89,0 -4.95,0.559 -6.18,1.668 -1.23,1.114 -1.85,2.571 -1.85,4.368 0,1.757 0.62,3.195 1.85,4.304 1.23,1.114 3.29,1.672 6.18,1.672 h 7.15 v 29.18 h -4.34 c -2.89,0 -4.95,0.554 -6.18,1.668 -1.23,1.117 -1.84,2.57 -1.84,4.367 0,1.758 0.61,3.191 1.84,4.305 1.23,1.117 3.29,1.672 6.18,1.672 h 16.35" /><path
         id="path76"
         style="fill:#91d122;fill-opacity:1;fill-rule:nonzero;stroke:none"
         d="m 2457.23,165.156 c 0,3.867 -1.39,7.422 -4.16,10.664 -3.79,4.375 -8.77,6.563 -14.94,6.563 -5.43,0 -9.96,-1.738 -13.59,-5.215 -3.64,-3.477 -5.45,-7.5 -5.45,-12.07 0,-3.75 1.83,-7.258 5.5,-10.52 3.68,-3.262 8.19,-4.89 13.54,-4.89 5.39,0 9.92,1.628 13.59,4.89 3.68,3.262 5.51,6.789 5.51,10.578 z m 12.01,0.059 c 0,-4.61 -1.28,-9.074 -3.83,-13.391 -2.56,-4.316 -6.37,-7.754 -11.43,-10.312 -5.06,-2.559 -10.34,-3.836 -15.85,-3.836 -5.47,0 -10.7,1.258 -15.7,3.777 -5,2.52 -8.81,5.949 -11.43,10.285 -2.62,4.336 -3.92,8.867 -3.92,13.594 0,4.805 1.32,9.52 3.98,14.148 2.66,4.629 6.47,8.274 11.45,10.93 4.99,2.656 10.19,3.985 15.62,3.985 5.47,0 10.73,-1.36 15.79,-4.075 5.06,-2.715 8.88,-6.367 11.46,-10.957 2.57,-4.59 3.86,-9.304 3.86,-14.148" /><path
         id="path78"
         style="fill:#91d122;fill-opacity:1;fill-rule:nonzero;stroke:none"
         d="m 2535.57,192.813 v -41.192 c 2.54,0 4.42,-0.566 5.63,-1.699 1.21,-1.133 1.81,-2.578 1.81,-4.336 0,-1.758 -0.61,-3.195 -1.84,-4.309 -1.23,-1.109 -3.29,-1.668 -6.18,-1.668 h -11.43 v 2.754 c -3.44,-1.562 -6.72,-2.734 -9.84,-3.515 -3.13,-0.782 -6.1,-1.172 -8.91,-1.172 -3.95,0 -7.36,0.832 -10.25,2.492 -2.89,1.656 -5.18,3.953 -6.86,6.883 -1.21,2.109 -1.82,4.746 -1.82,7.91 v 25.84 h -2.05 c -2.89,0 -4.95,0.554 -6.18,1.668 -1.23,1.117 -1.84,2.57 -1.84,4.367 0,1.758 0.61,3.191 1.84,4.305 1.23,1.117 3.29,1.672 6.18,1.672 h 14.07 V 157.07 c 0,-2.539 0.61,-4.402 1.84,-5.597 1.23,-1.192 3.12,-1.785 5.66,-1.785 2.42,0 5.02,0.48 7.82,1.433 2.79,0.957 6.24,2.688 10.34,5.188 v 24.492 h -4.34 c -2.89,0 -4.95,0.554 -6.18,1.668 -1.23,1.117 -1.84,2.57 -1.84,4.367 0,1.758 0.61,3.191 1.84,4.305 1.23,1.117 3.29,1.672 6.18,1.672 h 16.35" /><path
         id="path80"
         style="fill:#91d122;fill-opacity:1;fill-rule:nonzero;stroke:none"
         d="m 2602.78,166.855 c 0,1.68 -0.67,3.821 -1.99,6.415 -1.33,2.597 -3.37,4.765 -6.13,6.503 -2.75,1.739 -5.98,2.61 -9.69,2.61 -5.98,0 -10.73,-2.246 -14.24,-6.738 -2.39,-3.086 -3.58,-6.055 -3.58,-8.907 0,-3.203 1.71,-6.316 5.13,-9.347 3.42,-3.028 7.65,-4.539 12.69,-4.539 5.07,0 9.31,1.503 12.71,4.511 3.4,3.008 5.1,6.172 5.1,9.492 z m -35.63,-20.625 v -19.687 h 7.21 c 2.89,0 4.95,-0.559 6.18,-1.672 1.23,-1.113 1.85,-2.566 1.85,-4.363 0,-1.758 -0.62,-3.195 -1.85,-4.309 -1.23,-1.109 -3.29,-1.668 -6.18,-1.668 h -21.27 c -2.89,0 -4.95,0.559 -6.18,1.668 -1.23,1.114 -1.85,2.551 -1.85,4.309 0,1.797 0.63,3.25 1.88,4.363 1.25,1.113 3.3,1.672 6.15,1.672 h 2.05 v 54.258 h -2.05 c -2.89,0 -4.95,0.554 -6.18,1.668 -1.23,1.117 -1.85,2.57 -1.85,4.367 0,1.758 0.62,3.191 1.85,4.305 1.23,1.117 3.29,1.672 6.18,1.672 h 14.06 v -4.102 c 2.82,1.914 5.73,3.34 8.73,4.277 3.01,0.938 6.1,1.407 9.26,1.407 8.2,0 15.2,-2.786 20.98,-8.348 5.78,-5.57 8.67,-11.945 8.67,-19.133 0,-7.93 -3.42,-14.473 -10.25,-19.629 -5.71,-4.297 -12.13,-6.445 -19.28,-6.445 -3.09,0 -6.13,0.449 -9.14,1.348 -3.01,0.898 -6,2.246 -8.97,4.042" /></g></g></svg>