<?xml version="1.0" encoding="UTF-8" standalone="no"?>
<svg
   xmlns:dc="http://purl.org/dc/elements/1.1/"
   xmlns:cc="http://creativecommons.org/ns#"
   xmlns:rdf="http://www.w3.org/1999/02/22-rdf-syntax-ns#"
   xmlns:svg="http://www.w3.org/2000/svg"
   xmlns="http://www.w3.org/2000/svg"
   viewBox="0 0 263.81332 272.66666"
   height="272.66666"
   width="263.81332"
   xml:space="preserve"
   id="svg2"
   version="1.1"><metadata
     id="metadata8"><rdf:RDF><cc:Work
         rdf:about=""><dc:format>image/svg+xml</dc:format><dc:type
           rdf:resource="http://purl.org/dc/dcmitype/StillImage" /></cc:Work></rdf:RDF></metadata><defs
     id="defs6" /><g
     transform="matrix(1.3333333,0,0,-1.3333333,0,272.66667)"
     id="g10"><g
       transform="scale(0.1)"
       id="g12"><path
         id="path14"
         style="fill:#27963c;fill-opacity:1;fill-rule:nonzero;stroke:none"
         d="m 587.477,370.23 h -52.325 v 83.469 l -35.195,52.629 V 370.23 H 447.32 v 219.891 h 52.637 v -20.57 l 35.195,-52.321 v 72.891 h 52.325 V 370.23" /><path
         id="path16"
         style="fill:#27963c;fill-opacity:1;fill-rule:nonzero;stroke:none"
         d="m 789.945,418.191 c 0,-31.769 -21.179,-47.961 -50.144,-47.961 h -39.863 c -28.653,0 -50.157,16.192 -50.157,47.961 v 171.93 h 52.637 V 402.922 h 35.195 v 187.199 h 52.332 v -171.93" /><path
         id="path18"
         style="fill:#27963c;fill-opacity:1;fill-rule:nonzero;stroke:none"
         d="m 946.93,370.23 h -44.532 c -28.652,0 -50.148,16.192 -50.148,47.961 v 171.93 h 52.629 V 402.922 H 946.93 V 370.23" /><path
         id="path20"
         style="fill:#27963c;fill-opacity:1;fill-rule:nonzero;stroke:none"
         d="m 1088.35,370.23 h -44.55 c -28.65,0 -50.132,16.192 -50.132,47.961 v 171.93 H 1046.3 V 402.922 h 42.05 V 370.23" /><path
         id="path22"
         style="fill:#27963c;fill-opacity:1;fill-rule:nonzero;stroke:none"
         d="m 1187.71,370.23 h -52.64 v 219.891 h 52.64 V 370.23" /><path
         id="path24"
         style="fill:#27963c;fill-opacity:1;fill-rule:nonzero;stroke:none"
         d="m 1344.7,463.969 h -42.05 V 370.23 h -52.64 v 171.918 c 0,31.774 21.5,47.973 50.15,47.973 h 44.54 v -32.699 h -42.05 v -61.063 h 42.05 v -32.39" /><path
         id="path26"
         style="fill:#27963c;fill-opacity:1;fill-rule:nonzero;stroke:none"
         d="m 1430.37,446.531 c -21.8,0 -38.62,18.699 -38.62,44.231 v 99.359 h 52.33 V 479.23 h 34.88 v 110.891 h 52.32 v -99.359 c 0,-25.532 -16.81,-44.231 -38.62,-44.231 h -4.99 V 370.23 h -52.32 v 76.301 h -4.98" /><path
         id="path28"
         style="fill:#27963c;fill-opacity:1;fill-rule:nonzero;stroke:none"
         d="m 824.859,693.359 h -53.867 c -52.57,0 -90.019,30.231 -90.019,88.7 V 991.66 h -33.516 v 60.47 h 33.516 v 209.59 c 0,58.48 37.449,88.71 90.019,88.71 h 53.867 v -59.8 h -57.812 v -208.28 c 0,-30.89 -18.399,-50.6 -47.305,-60.46 28.906,-9.19 47.305,-29.562 47.305,-59.788 V 753.16 h 57.812 v -59.801" /><path
         id="path30"
         style="fill:#27963c;fill-opacity:1;fill-rule:nonzero;stroke:none"
         d="m 1347.65,991.66 h -33.49 V 782.059 c 0,-58.469 -37.47,-88.7 -90.02,-88.7 h -53.88 v 59.801 h 57.82 v 208.942 c 0,30.226 17.74,50.598 47.31,59.788 -29.57,9.86 -47.31,29.57 -47.31,60.46 v 208.28 h -57.82 v 59.8 h 53.88 c 52.55,0 90.02,-30.23 90.02,-88.71 v -209.59 h 33.49 v -60.47" /><path
         id="path32"
         style="fill:#91d122;fill-opacity:1;fill-rule:nonzero;stroke:none"
         d="m 1236.41,1391.76 h -69.02 v 37.19 c 0,102.91 -76.89,205.32 -171.39,205.32 -94.5,0 -171.375,-102.41 -171.375,-205.32 v -37.19 H 755.59 v 37.19 c 0,135.54 107.851,245.79 240.41,245.79 132.57,0 240.41,-110.25 240.41,-245.79 v -37.19" /><path
         id="path34"
         style="fill:#91d122;fill-opacity:1;fill-rule:nonzero;stroke:none"
         d="m 1023.4,1035.93 c 35.03,12.46 60.11,45.9 60.11,85.2 0,49.94 -40.48,90.43 -90.408,90.43 -49.942,0 -90.422,-40.49 -90.422,-90.43 0,-39.3 25.09,-72.74 60.129,-85.2 L 950.27,1003.32 907.438,891.859 h 85.664 85.658 l -42.83,111.461 -12.53,32.61" /></g></g></svg>